<?xml version="1.0" encoding="UTF-8"?>
<svg id="Layer_1" data-name="Layer 1" xmlns="http://www.w3.org/2000/svg" xmlns:xlink="http://www.w3.org/1999/xlink" viewBox="0 0 193.52 104">
  <defs>
    <style>
      .cls-1 {
        fill: #db8231;
      }

      .cls-1, .cls-2, .cls-3, .cls-4, .cls-5, .cls-6, .cls-7, .cls-8 {
        stroke-width: 0px;
      }

      .cls-2 {
        fill: #212a3c;
        opacity: .2;
      }

      .cls-3 {
        fill: #fed09e;
      }

      .cls-4 {
        fill: #ffe1c5;
      }

      .cls-5 {
        fill: #f9b673;
      }

      .cls-6 {
        fill: #fff4e9;
      }

      .cls-7 {
        fill: url(#linear-gradient);
        opacity: .5;
      }

      .cls-8 {
        fill: #fff;
        opacity: .4;
      }
    </style>
    <linearGradient id="linear-gradient" x1="68.37" y1="9.55" x2="99.98" y2="48.59" gradientUnits="userSpaceOnUse">
      <stop offset="0" stop-color="#fff"/>
      <stop offset="1" stop-color="#fff" stop-opacity="0"/>
    </linearGradient>
  </defs>
  <path class="cls-6" d="M94.36,31.23C40.94,37.86-1.29,53.9.03,67.05c1.33,13.14,45.71,18.43,99.13,11.79,53.43-6.63,95.66-22.67,94.33-35.82-1.33-13.15-45.71-18.43-99.13-11.8ZM97.94,75.33c-37.65,4.67-78.37,2.65-79.68-10.31-1.3-12.96,38-24.92,75.65-29.59,37.65-4.67,78.37-2.65,79.68,10.31,1.31,12.96-38,24.92-75.65,29.59ZM95.01,37.62c-39.07,4.85-69.95,16.58-68.98,26.2.97,9.61,33.43,13.48,72.49,8.62,39.07-4.85,69.96-16.58,68.99-26.19-.97-9.62-33.43-13.48-72.49-8.63ZM97.62,69.88c-27.53,3.42-57.31,1.94-58.27-7.54-.95-9.47,27.79-18.22,55.32-21.64,27.53-3.42,57.31-1.94,58.27,7.54.96,9.48-27.79,18.22-55.32,21.64Z"/>
  <g>
    <ellipse class="cls-1" cx="139.69" cy="68.5" rx="1.12" ry=".66"/>
    <g>
      <path class="cls-3" d="M149.18,52c0,28.72-23.28,52-52,52s-52-23.28-52-52S68.46,0,97.18,0s52,23.28,52,52Z"/>
      <g>
        <path class="cls-1" d="M89.25,89.96c-5.22-1.31-10.01-.58-15.13.76-3.83,1-8.15-1.16-12.3-.61,9.28,8.61,21.7,13.89,35.36,13.89,10.04,0,19.41-2.85,27.36-7.78-.63-.19-1.27-.38-1.93-.57-5.1-1.41-10.86-1.46-16.09-2.29-5.8-.92-11.58-1.97-17.27-3.4Z"/>
        <path class="cls-1" d="M129.71,58.08c-2.47-.85-4.79-2.02-7.31-2.77-2.98-.89-6.41-.65-9.48-.8-6.52-.3-12.29-2.34-18.61-3.47-4.81-.87-9.67.18-14.32,1.4-3.09.81-6.08,1.6-9.3,1.78-3.2.18-6.25-.22-9.45.33-5.28.92-10.5,1.83-15.8,2.56.16,1.66.41,3.3.72,4.92.71-.08,1.42-.15,2.12-.23,5.16-.58,10.17-1.88,15.3-2.56,5.51-.74,10.6-.11,16.09-1.54,6.66-1.73,12.1-2.44,18.78-.51,5.4,1.56,10.68,2.15,16.29,2.41,3.25.15,6.23.39,9.3,1.52,2.46.91,4.76,2.02,7.31,2.68,4.76,1.24,9.96-.72,14.48-2.03.85-.25,1.69-.44,2.52-.59.31-1.73.53-3.5.66-5.29-6.53,1.33-12.65,4.47-19.31,2.18Z"/>
        <path class="cls-4" d="M132.73,72.93c-5.84-1.41-11.87-.98-17.77-2.45-4.99-1.24-11.65-4.19-16.85-2.83-1.79.47-3.34,1.28-4.93,2.21-1.9,1.12-5.44-.88-7.86-.29-2.31.57-4.36,1.69-6.61,2.45-2.31.77-6.07-1.18-8.37-1.63-5.84-1.15-11.92,1.16-17.41,2.91-.93.3-1.86.6-2.79.9,1.45,3.07,3.19,5.97,5.19,8.67,4.51-1.67,9.47-3.41,13.75-2.57,4.83.95,8.72,2.55,13.65.9,2.64-.88,4-2.14,6.85-1.14,2.38.83,5.53.03,7.69-1.08,2.13-1.09,2.73-1.72,5.2-1.29,2.77.48,5.5,1.28,8.21,2,6.03,1.6,11.81,1.74,17.91,2.59,3.07.43,6.01,1.37,8.88,2.56,2.07-2.53,3.9-5.26,5.47-8.15-3.28-1.55-6.63-2.91-10.22-3.77Z"/>
        <path class="cls-5" d="M110.35,9.8c4.99-.32,10.05-1.16,15.09-1.45C117.3,3.08,107.6,0,97.18,0c-9.45,0-18.31,2.54-25.95,6.94,4.52.69,9.05.96,12.78,1.39,6.78.78,17.82,2.02,26.34,1.47Z"/>
        <path class="cls-1" d="M52.42,25.54c4.69-1.12,9.56-1.63,14.25-2.02,4.65-.39,8.77.38,13.35.98,5.35.7,10.55.51,15.89-.17,2.21-.28,4.41-.63,6.61-.97,3.21-.5,5.19.39,8.17,1.46,4.46,1.61,9.44,1.82,14.13,1.92,5.06.1,9.92.82,14.95,1.26,1.18.1,2.34.04,3.48-.11-1.92-3.65-4.26-7.05-6.95-10.13-3.81-.37-7.59-.99-11.47-1.02-5.2-.04-9.79-.87-14.64-2.73-5.16-1.98-10.74-.12-16,.55-10.29,1.31-20.14-1.74-30.44-.77-.67.06-1.35.13-2.03.2-3.62,3.38-6.76,7.27-9.3,11.56Z"/>
        <path class="cls-4" d="M122.56,36.13c-6.03-1.6-11.66-3.31-17.95-3.4-6.33-.09-12.85.04-19.17.42-3.05.19-5.95,1.01-8.87,1.86-3.39.98-6.5.99-10.02.9-6.22-.16-12.67.14-19.09.83-.26.86-.5,1.72-.72,2.59,6.66-.75,13.37-1.09,19.81-.92,5.28.14,9-.48,14.04-1.97,6.4-1.88,13.91-.9,20.52-1.14,11.88-.44,22.5,4.96,34.31,4.99,4.23.01,8.38-.11,12.48.31-.19-.85-.4-1.7-.63-2.53-1.59-.19-3.18-.3-4.8-.33-6.84-.11-13.22.17-19.92-1.61Z"/>
      </g>
      <ellipse class="cls-1" cx="136.19" cy="46.17" rx="3" ry="1.77"/>
      <ellipse class="cls-1" cx="62.15" cy="44" rx="3" ry="1.77"/>
      <ellipse class="cls-1" cx="125.4" cy="68.25" rx="3" ry="1.77"/>
      <ellipse class="cls-1" cx="89.65" cy="5" rx="3" ry="1.77"/>
      <ellipse class="cls-1" cx="103.21" cy="88.88" rx="1.81" ry="1.07"/>
      <ellipse class="cls-1" cx="102.21" cy="40.13" rx="1.81" ry="1.07"/>
      <ellipse class="cls-1" cx="74.96" cy="64.75" rx="1.81" ry="1.07"/>
      <ellipse class="cls-1" cx="123.21" cy="13.88" rx="1.12" ry=".66"/>
      <ellipse class="cls-1" cx="76.35" cy="10.67" rx="1.12" ry=".66"/>
      <ellipse class="cls-1" cx="83.69" cy="43.5" rx="1.12" ry=".66"/>
      <path class="cls-1" d="M117.98,48.83c0,.37-.5.66-1.12.66s-1.12-.3-1.12-.66.5-.66,1.12-.66,1.12.3,1.12.66Z"/>
      <ellipse class="cls-1" cx="129.02" cy="30.17" rx="1.12" ry=".66"/>
      <path class="cls-1" d="M98.81,62.67c0,.37-.5.66-1.12.66s-1.12-.3-1.12-.66.5-.66,1.12-.66,1.12.3,1.12.66Z"/>
      <ellipse class="cls-1" cx="89.02" cy="86" rx="1.12" ry=".66"/>
      <path class="cls-1" d="M120.48,88.33c0,.37-.5.66-1.12.66s-1.12-.3-1.12-.66.5-.66,1.12-.66,1.12.3,1.12.66Z"/>
      <ellipse class="cls-1" cx="59.35" cy="66" rx="1.12" ry=".66"/>
      <path class="cls-1" d="M63.31,29.33c0,.37-.5.66-1.12.66s-1.12-.3-1.12-.66.5-.66,1.12-.66,1.12.3,1.12.66Z"/>
      <path class="cls-1" d="M105.15,28.16c0,.37-.5.66-1.12.66s-1.12-.3-1.12-.66.5-.66,1.12-.66,1.12.3,1.12.66Z"/>
    </g>
    <g>
      <path class="cls-2" d="M138.79,20.81c-16.89,23.77-48.23,61.13-80.74,65.42,9.53,10.89,23.52,17.77,39.13,17.77,28.72,0,52-23.28,52-52,0-11.7-3.87-22.5-10.39-31.19Z"/>
      <path class="cls-2" d="M149.15,50.84c-17.13,20.72-45.99,46.27-82.48,43.25,8.57,6.22,19.11,9.9,30.51,9.9,28.72,0,52-23.28,52-52,0-.39-.02-.77-.03-1.16Z"/>
    </g>
  </g>
  <path class="cls-6" d="M193.49,43.02c-.84-8.35-19.03-13.52-45.87-14.49.57,1.89,1.31,3.78,1.9,5.68,13.89,1.67,23.45,5.36,24.07,11.53,1.31,12.96-38,24.92-75.65,29.59-37.65,4.67-78.37,2.65-79.68-10.31-.65-6.48,8.85-12.71,23.23-17.91.03-1.85.26-3.66.5-5.49C15.95,49.16-.81,58.69.03,67.05c1.33,13.14,45.71,18.43,99.13,11.79,53.43-6.63,95.66-22.67,94.33-35.82Z"/>
  <path class="cls-6" d="M150.27,37.19c.02.12.05.24.07.36.38,2.39.51,4.62.25,6.9,1.38,1.08,2.2,2.34,2.34,3.79.96,9.48-27.79,18.22-55.32,21.64-27.53,3.42-57.31,1.94-58.27-7.54-.22-2.22,1.19-4.39,3.83-6.47-.7-1.74-1.22-3.54-1.49-5.4-10.17,4.34-16.11,9.05-15.67,13.35.97,9.61,33.43,13.48,72.49,8.62,39.07-4.85,69.96-16.58,68.99-26.19-.42-4.2-6.86-7.3-17.22-9.06Z"/>
  <g>
    <path class="cls-7" d="M114.44,11.29c6.95,11.83-.96,29.38-17.68,39.2-16.71,9.82-35.9,8.19-42.85-3.63-6.95-11.83.97-29.38,17.68-39.2,16.71-9.82,35.9-8.2,42.85,3.63Z"/>
    <path class="cls-8" d="M99.08,9.75c4.15,7.06-1.31,17.98-12.2,24.38-10.89,6.4-23.08,5.86-27.23-1.21-4.15-7.06,1.31-17.98,12.2-24.38,10.89-6.4,23.08-5.86,27.23,1.21Z"/>
  </g>
</svg>