<?xml version="1.0" encoding="UTF-8"?>
<svg id="Layer_1" data-name="Layer 1" xmlns="http://www.w3.org/2000/svg" xmlns:xlink="http://www.w3.org/1999/xlink" viewBox="0 0 193.52 117.54">
  <defs>
    <style>
      .cls-1 {
        fill: #fbb040;
      }

      .cls-1, .cls-2, .cls-3, .cls-4, .cls-5, .cls-6, .cls-7, .cls-8 {
        stroke-width: 0px;
      }

      .cls-2 {
        fill: #f15a29;
      }

      .cls-3 {
        fill: #ffc585;
      }

      .cls-4 {
        fill: #212a3c;
        opacity: .2;
      }

      .cls-5 {
        fill: #e05b41;
      }

      .cls-6 {
        fill: #fff;
      }

      .cls-6, .cls-8 {
        opacity: .3;
      }

      .cls-7 {
        fill: #f7941e;
      }

      .cls-8 {
        fill: url(#linear-gradient);
      }
    </style>
    <linearGradient id="linear-gradient" x1="68.49" y1="56.78" x2="93.85" y2="103.46" gradientTransform="translate(2.81 -18.98) rotate(-9.87) scale(.83 .85) skewX(1.3)" gradientUnits="userSpaceOnUse">
      <stop offset="0" stop-color="#fff"/>
      <stop offset="1" stop-color="#fff" stop-opacity="0"/>
    </linearGradient>
  </defs>
  <path class="cls-3" d="M94.36,43.68C40.94,50.31-1.29,66.34.03,79.5c1.33,13.14,45.71,18.43,99.13,11.79,53.42-6.63,95.66-22.67,94.33-35.82-1.33-13.15-45.71-18.43-99.13-11.8ZM97.68,85.17c-32.72,4.06-68.11,2.3-69.24-8.96-1.13-11.26,33.03-21.65,65.74-25.72,32.72-4.06,68.1-2.3,69.24,8.96,1.14,11.26-33.03,21.66-65.74,25.72Z"/>
  <g>
    <g>
      <path class="cls-7" d="M154.89,58.77c0,32.46-26.31,58.77-58.77,58.77s-58.77-26.31-58.77-58.77S63.66,0,96.12,0s58.77,26.31,58.77,58.77Z"/>
      <g>
        <path class="cls-1" d="M122.49,28.06c-2.82-.78-5.75-1.09-8.62-1.59-6.49-1.13-13.08-2.56-19.71-2.38-3.19.09-18.48,1.15-16.18,7.44.75,2.05,3.72,2.74,5.52,3.42,4.58,1.72,9.57,2.51,14.44,1.82,3.21-.46,6.23-1.89,9.49-2.02,3.77-.15,7.55-.2,11.32-.24.81,0,3.8.21,6.41,0,2.45-.2,4.56-.76,4.25-2.23-.52-2.42-4.92-3.67-6.92-4.22Z"/>
        <path class="cls-5" d="M143.82,24.45C133.14,9.65,115.76,0,96.12,0c-17.05,0-32.4,7.27-43.13,18.87,12.92-.48,25.94-.61,38.57-3.55,3.44-.8,6.89-1.86,10.48-1.75,8.18.25,15.65,3.88,23.11,6.73,5.07,1.94,12.44,4.71,18.67,4.15Z"/>
        <path class="cls-5" d="M140,69.06c-2.19-.23-4.57-.85-6.77-.36-1.52.34-4.4,2.07-2.21,3.71.59.44,2.22.53,2.94.67,4.74.91,9.69,1.66,14.48,2.22,1.33.16,2.66.25,3.99.3.65-2.19,1.18-4.44,1.58-6.73-4.65.52-9.35.68-14.01.18Z"/>
        <path class="cls-5" d="M142.34,82.95c-2.34-.06-25.29-4.11-26.05-1.23-.64,2.45-2.54,8.26-3.18,9.8-.64,1.53-6.35,3.37-6.35,3.37,0,0-3.18-.31-7.62.61-14.54,3-28.28-19.03-41.93-9.18-2.54,1.84-8.58,1.23-11.12,2.14-.21.08-.4.13-.58.17,10.23,17.3,29.06,28.91,50.61,28.91,23.57,0,43.88-13.88,53.25-33.9-2.13-.37-4.47-.63-7.03-.69Z"/>
        <path class="cls-1" d="M83.73,71.08c-3.35-.08-6.9-.97-10.22-.16-1.96.48-5.23,2.17-2.35,4.03,1.78,1.15,4.4.55,6.4.96,2.53.51,4.91,1.56,7.25,2.62,5.1,2.31,9.74,4.37,15.52,2.92,3.85-.96,7.35-1.73,9.85-5.1,1.39-1.87,1.98-4.97,3.99-6.32-2.74-1.59-6.24-.42-9.11.18-6.97,1.44-14.27,1.03-21.34.87Z"/>
        <path class="cls-2" d="M53.56,35.06c2.2-.11,4.64.13,6.74-.7,1.45-.57,4.03-2.73,1.6-4.01-.65-.34-2.27-.18-3.01-.2-4.65-.16-9.47-.13-14.13.04-1.21,2.17-2.28,4.43-3.21,6.76,3.94-.99,7.94-1.68,12-1.88Z"/>
        <path class="cls-2" d="M40.69,56.01c4.13.92,4.45.31,9.85,1.84,5.4,1.53,13.66,1.53,14.93,1.84,1.27.31,3.81.31,4.77.31h30.49c1.27,0,9.53-.61,12.07-.92,2.54-.31,8.89-.61,8.89-.61,0,0,.64,0,7.31-.92,6.67-.92,13.98-2.14,16.83-.61,1.59.85,5.61,1.23,9.05,1.55-.02-3.26-.31-6.46-.83-9.58l-14.89-3.91-14.93,1.22s-8.26,4.28-10.48,4.9c-2.22.61-5.4.31-6.99.31s-10.16-.61-10.16-.61c0,0-6.35-1.53-12.07-1.53s-18.74-.61-20.65,0c-1.91.61-6.35.61-7.31.61h-18.55c-.29,1.89-.48,3.8-.58,5.74.84-.04,1.81.06,3.26.38Z"/>
      </g>
      <path class="cls-1" d="M78.06,41.36c0,1.46-3.31,2.64-7.38,2.64s-7.38-1.18-7.38-2.64,3.31-2.64,7.38-2.64,7.38,1.18,7.38,2.64Z"/>
      <path class="cls-1" d="M140.62,62.59c0,.93-2.11,1.68-4.71,1.68s-4.71-.75-4.71-1.68,2.11-1.68,4.71-1.68,4.71.75,4.71,1.68Z"/>
      <path class="cls-1" d="M56.6,66.27c0,.93-2.11,1.68-4.71,1.68s-4.71-.75-4.71-1.68,2.11-1.68,4.71-1.68,4.71.75,4.71,1.68Z"/>
      <path class="cls-1" d="M145.76,38.18c0,.8-1.82,1.45-4.06,1.45s-4.06-.65-4.06-1.45,1.82-1.45,4.06-1.45,4.06.65,4.06,1.45Z"/>
      <path class="cls-1" d="M109.8,88.08c0,.8-1.82,1.45-4.06,1.45s-4.06-.65-4.06-1.45,1.82-1.45,4.06-1.45,4.06.65,4.06,1.45Z"/>
      <path class="cls-1" d="M62.51,23.34c0,.8-1.82,1.45-4.06,1.45s-4.06-.65-4.06-1.45,1.82-1.45,4.06-1.45,4.06.65,4.06,1.45Z"/>
    </g>
    <g>
      <path class="cls-4" d="M50.63,95.97c10.78,13.16,27.15,21.57,45.49,21.57,32.46,0,58.77-26.31,58.77-58.77,0-13.32-4.43-25.59-11.9-35.45-16.86,25.44-54.24,74.17-92.36,72.65Z"/>
      <path class="cls-4" d="M55.78,101.49c10.53,9.94,24.71,16.05,40.34,16.05,32.46,0,58.77-26.31,58.77-58.77,0-1.9-.1-3.77-.27-5.62-17.8,23.9-52.82,59.17-98.83,48.34Z"/>
    </g>
    <path class="cls-8" d="M117.12,14.34c8.36,13.77-.64,34.52-20.1,46.34-19.47,11.82-42.02,10.23-50.39-3.54-8.36-13.77.64-34.52,20.1-46.34C86.2-1.02,108.76.57,117.12,14.34Z"/>
    <path class="cls-6" d="M99.06,12.8c5,8.23-1.24,21.14-13.92,28.84-12.68,7.7-27.01,7.27-32-.95-5-8.23,1.23-21.14,13.92-28.84,12.68-7.7,27.01-7.27,32.01.95Z"/>
  </g>
  <path class="cls-3" d="M193.49,55.47c-.75-7.42-15.21-12.33-37.26-14.01.21,3.68.19,7.38-.09,11.04,4.33,1.71,6.99,4,7.28,6.95,1.14,11.26-33.03,21.66-65.74,25.72-32.72,4.06-68.11,2.3-69.24-8.96-.27-2.64,1.42-5.22,4.55-7.69-1.19-3.41-1.49-7.41-1.41-11.15C11.58,64.27-.69,72.31.03,79.5c1.33,13.14,45.71,18.43,99.13,11.79,53.42-6.63,95.66-22.67,94.33-35.82Z"/>
</svg>