<?xml version="1.0" encoding="UTF-8"?>
<svg id="Layer_1" data-name="Layer 1" xmlns="http://www.w3.org/2000/svg" xmlns:xlink="http://www.w3.org/1999/xlink" viewBox="0 0 87.51 87.51">
  <defs>
    <style>
      .cls-1 {
        fill: #a7a9ac;
      }

      .cls-1, .cls-2, .cls-3, .cls-4, .cls-5, .cls-6 {
        stroke-width: 0px;
      }

      .cls-2 {
        fill: #fff;
        opacity: .3;
      }

      .cls-3 {
        fill: #212a3c;
        opacity: .1;
      }

      .cls-4 {
        fill: url(#linear-gradient);
        opacity: .5;
      }

      .cls-5 {
        fill: #e6e7e8;
      }

      .cls-6 {
        fill: #d1d3d4;
      }
    </style>
    <linearGradient id="linear-gradient" x1="23.32" y1="54.78" x2="40.87" y2="87.06" gradientTransform="translate(-4.42 -28.92) rotate(-9.87) scale(.83 .85) skewX(1.3)" gradientUnits="userSpaceOnUse">
      <stop offset="0" stop-color="#fff"/>
      <stop offset="1" stop-color="#fff" stop-opacity="0"/>
    </linearGradient>
  </defs>
  <g>
    <circle class="cls-5" cx="43.76" cy="43.76" r="43.76" transform="translate(-8.88 11.22) rotate(-13.28)"/>
    <g>
      <path class="cls-6" d="M48.97,56.42c0,5.95,4.82,10.77,10.77,10.77s10.77-4.82,10.77-10.77-4.82-10.77-10.77-10.77-10.77,4.82-10.77,10.77Z"/>
      <path class="cls-1" d="M69.42,23.64c0-3.34-2.71-6.06-6.06-6.06s-6.06,2.71-6.06,6.06,2.71,6.06,6.06,6.06,6.06-2.71,6.06-6.06Z"/>
      <path class="cls-6" d="M73.5,47.33c0,6.65,4.22,12.3,10.11,14.48,2.5-5.51,3.9-11.61,3.9-18.05,0-4.01-.55-7.88-1.56-11.57-7.1,1.39-12.45,7.64-12.45,15.15Z"/>
      <path class="cls-6" d="M14.43,54.86c0-1.35-1.09-2.44-2.44-2.44s-2.44,1.09-2.44,2.44,1.09,2.44,2.44,2.44,2.44-1.09,2.44-2.44Z"/>
      <path class="cls-6" d="M71.86,36.56c0-1.35-1.09-2.44-2.44-2.44s-2.44,1.09-2.44,2.44,1.09,2.44,2.44,2.44,2.44-1.09,2.44-2.44Z"/>
      <path class="cls-6" d="M16.96,65.85c0,3.35,2.71,6.06,6.06,6.06s6.06-2.71,6.06-6.06-2.71-6.06-6.06-6.06-6.06,2.71-6.06,6.06Z"/>
      <path class="cls-6" d="M40.26,14.47c0,2.14,1.73,3.87,3.87,3.87s3.87-1.73,3.87-3.87-1.73-3.87-3.87-3.87-3.87,1.73-3.87,3.87Z"/>
      <path class="cls-1" d="M58.08,85.11c-1.25-7.28-7.57-12.82-15.2-12.82s-13.61,5.24-15.1,12.21c4.95,1.95,10.34,3.02,15.98,3.02,5.02,0,9.83-.85,14.32-2.41Z"/>
      <path class="cls-1" d="M19.02,42.75c4.55,0,8.25-3.69,8.25-8.25s-3.69-8.25-8.25-8.25-8.25,3.69-8.25,8.25,3.69,8.25,8.25,8.25Z"/>
      <path class="cls-6" d="M44.56,35.43c0-1.35-1.09-2.44-2.44-2.44s-2.44,1.09-2.44,2.44,1.09,2.44,2.44,2.44,2.44-1.09,2.44-2.44Z"/>
      <path class="cls-6" d="M36.81,52.76c-2.14,0-3.87,1.73-3.87,3.87s1.73,3.87,3.87,3.87,3.87-1.73,3.87-3.87-1.73-3.87-3.87-3.87Z"/>
    </g>
  </g>
  <g>
    <path class="cls-3" d="M79.13,18.01c-12.05,18.34-39.31,54.5-67.52,55.42,7.99,8.66,19.44,14.08,32.15,14.08,24.17,0,43.76-19.59,43.76-43.76,0-9.62-3.12-18.52-8.38-25.74Z"/>
    <path class="cls-3" d="M87.43,41.11c-12.84,17.28-37.73,42.61-70.46,37.24,7.4,5.74,16.69,9.17,26.79,9.17,24.17,0,43.76-19.59,43.76-43.76,0-.89-.03-1.77-.09-2.65Z"/>
  </g>
  <path class="cls-4" d="M57.51,10.51c5.79,9.53-.44,23.88-13.9,32.05-13.46,8.18-29.07,7.08-34.85-2.45-5.79-9.53.44-23.88,13.9-32.05C36.12-.11,51.73.98,57.51,10.51Z"/>
  <path class="cls-2" d="M45.02,9.44c3.45,5.69-.85,14.62-9.62,19.95-8.77,5.33-18.68,5.03-22.14-.66-3.46-5.69.85-14.62,9.62-19.95,8.77-5.33,18.68-5.03,22.14.66Z"/>
</svg>